<?xml version="1.0" encoding="UTF-8"?>
<svg data-name="Layer 1" viewBox="0 0 18.99 8.35" xmlns="http://www.w3.org/2000/svg">
<defs>
<style>.cls-1{fill:#fff;}</style>
</defs>
<title>AFoV</title>
<path class="cls-1" d="M.74,3.53l.16,0,.71-2h.48l.71,2,.17,0v.29H2.18V3.53l.16,0-.1-.32H1.47l-.1.32.16,0v.29H.74Zm.84-.7h.54L1.85,2h0Z"/>
<path class="cls-1" d="M4.1,3.53l.25,0V1.8L4.1,1.75V1.47H6v.64H5.61l0-.28H4.82v.65h.82v.36H4.82v.65l.25,0v.29h-1V3.53Z"/>
<path class="cls-1" d="M6.22,1.75V1.47h1v.28l-.25.05V3.48l.25,0v.28h-1V3.53l.25,0V1.8Z"/>
<path class="cls-1" d="M9.19,2.22H8.83L8.77,1.9a.45.45,0,0,0-.18-.07,1,1,0,0,0-.24,0,.45.45,0,0,0-.3.08.24.24,0,0,0-.11.21.24.24,0,0,0,.11.2,1.64,1.64,0,0,0,.38.16A1.54,1.54,0,0,1,9,2.73a.62.62,0,0,1,.2.47A.54.54,0,0,1,9,3.67a1,1,0,0,1-.63.18,1.35,1.35,0,0,1-.5-.09,1.08,1.08,0,0,1-.37-.24V3h.36l0,.33a.67.67,0,0,0,.19.1,1.24,1.24,0,0,0,.27,0,.51.51,0,0,0,.3-.07.25.25,0,0,0,.1-.21A.26.26,0,0,0,8.65,3a.84.84,0,0,0-.33-.16,1.87,1.87,0,0,1-.63-.28.55.55,0,0,1-.21-.46.56.56,0,0,1,.24-.46,1,1,0,0,1,.6-.19,1.59,1.59,0,0,1,.5.08,1.21,1.21,0,0,1,.37.22v.48Z"/>
<path class="cls-1" d="M11.54,1.47v.62h-.36l0-.26h-.43V3.48l.25,0v.28H10V3.53l.25,0V1.83H9.83l0,.26H9.45V1.47Z"/>
<path class="cls-1" d="M11.78,3.53l.25,0V1.8l-.25-.05V1.47h1.87v.64h-.36l0-.28H12.5v.65h.83v.36H12.5v.65l.26,0v.29h-1Z"/>
<path class="cls-1" d="M14.86,1.47v.28l-.25.05V3a.48.48,0,0,0,.12.35.51.51,0,0,0,.34.11.54.54,0,0,0,.35-.11A.44.44,0,0,0,15.54,3V1.8l-.24-.05V1.47h1v.28L16,1.8V3a.73.73,0,0,1-.27.61,1.19,1.19,0,0,1-1.35,0A.76.76,0,0,1,14.14,3V1.8l-.25-.05V1.47h1Z"/>
<path class="cls-1" d="M16.5,3.81V3.53l.25,0V1.8l-.25-.05V1.47h1v.28l-.26.05V3.45h.66l0-.3h.36v.66Z"/>
<path class="cls-1" d="M.77,5.43A1,1,0,0,1,1,4.79a.76.76,0,0,1,.61-.25.73.73,0,0,1,.6.25.92.92,0,0,1,.22.64v0a.89.89,0,0,1-.22.64.76.76,0,0,1-.6.25A.74.74,0,0,1,1,6.1a.89.89,0,0,1-.22-.64v0Zm.46,0a.75.75,0,0,0,.09.39A.28.28,0,0,0,1.59,6a.28.28,0,0,0,.26-.14.75.75,0,0,0,.09-.39v0a.74.74,0,0,0-.09-.38.27.27,0,0,0-.27-.14.26.26,0,0,0-.26.14.74.74,0,0,0-.09.38Z"/>
<path class="cls-1" d="M2.93,6.6l.25,0V4.87l-.25,0V4.54H4.79v.65H4.43l0-.28H3.65v.64h.82v.37H3.64v.64l.26.05v.28h-1V6.6Z"/>
<path class="cls-1" d="M7.39,4.83l-.18,0,.41,1.4,0,.13h0l0-.12L8.1,4.86l-.17,0V4.54h.85v.29l-.19,0-.69,2H7.41l-.69-2-.19,0V4.54h.86Z"/>
<path class="cls-1" d="M9.34,4.83V4.54h1v.29l-.25,0V6.56l.25,0v.29h-1V6.6l.25,0V4.87Z"/>
<path class="cls-1" d="M13.28,4.54v.29l-.25,0v2h-.47l-1-1.58h0V6.56l.26,0v.29h-1V6.6l.24,0V4.87l-.24,0V4.54h.71l1,1.58h0V4.88l-.25,0V4.55h1Z"/>
<path class="cls-1" d="M14.71,4.83l-.19,0,.36.77h0l.36-.77-.19,0V4.54H16v.29l-.2,0-.64,1.2v.5l.25,0v.29h-1V6.6l.26,0V6L14,4.86l-.2,0V4.54h.89Z"/>
<path class="cls-1" d="M16.51,6.89V6.6l.25,0V4.87l-.25,0V4.54h1v.29l-.25,0V6.52h.66l0-.29h.36v.65H16.51Z"/>
<rect class="cls-1" x=".97" y="6.6" width="1.23" height=".28"/>
<rect class="cls-1" width="19" height=".73"/>
<rect class="cls-1" y="7.62" width="19" height=".73"/>
</svg>
